<svg width="25" height="25" viewBox="0 0 25 25" fill="none" xmlns="http://www.w3.org/2000/svg">
<path d="M22.765 13.0396C22.765 12.1771 22.6937 11.5471 22.5392 10.8939H12.4795V14.7901H18.3842C18.265 15.7584 17.6222 17.2171 16.1942 18.1966L16.174 18.3271L19.354 20.7421L19.5745 20.7639C21.5987 18.9316 22.765 16.2369 22.765 13.0404V13.0396Z" fill="#4285F4"/>
<path d="M12.479 23.3071C15.3717 23.3071 17.8002 22.3741 19.574 20.7639L16.1937 18.1966C15.2885 18.8154 14.0742 19.2466 12.479 19.2466C11.1349 19.2467 9.82451 18.8262 8.73155 18.0439C7.63859 17.2616 6.81786 16.1569 6.38445 14.8846L6.2592 14.8951L2.9517 17.4031L2.9082 17.5209C4.66995 20.9506 8.28945 23.3071 12.479 23.3071Z" fill="#34A853"/>
<path d="M6.38487 14.8839C6.15091 14.2161 6.03025 13.5139 6.02787 12.8064C6.02787 12.0834 6.15913 11.3836 6.37288 10.7304L6.36687 10.5916L3.01813 8.04236L2.90863 8.09336C2.15923 9.55174 1.76745 11.1675 1.76562 12.8071C1.76563 14.4991 2.18263 16.0974 2.90863 17.5201L6.38487 14.8846V14.8839Z" fill="#FBBC05"/>
<path d="M12.4787 6.36688C14.491 6.36688 15.8477 7.21888 16.6217 7.93063L19.6457 5.03713C17.7887 3.34513 15.3722 2.30713 12.4787 2.30713C8.28923 2.30713 4.66973 4.66363 2.90723 8.09338L6.37223 10.7304C7.24073 8.19913 9.64598 6.36688 12.4787 6.36688Z" fill="#EB4335"/>
</svg>
